<svg xmlns="http://www.w3.org/2000/svg"
	xmlns:xlink="http://www.w3.org/1999/xlink">
	<symbol id="table">
		<path d="M24 6h-24v-4h24v4zm0 4h-24v4h24v-4zm0 8h-24v4h24v-4z"/>
	</symbol>
	<symbol id="boxes">
		<path d="M6 6h-6v-6h6v6zm9-6h-6v6h6v-6zm9 0h-6v6h6v-6zm-18 9h-6v6h6v-6zm9 0h-6v6h6v-6zm9 0h-6v6h6v-6zm-18 9h-6v6h6v-6zm9 0h-6v6h6v-6zm9 0h-6v6h6v-6z"/>
	</symbol>
	<symbol id="arrow">
		<path d="M10.024 4h6.015l7.961 8-7.961 8h-6.015l7.961-8-7.961-8zm-10.024 16h6.015l7.961-8-7.961-8h-6.015l7.961 8-7.961 8z"/>
	</symbol>
</svg>